<?xml version="1.0" encoding="utf-8" ?>	<!-- Generator: Assembly 2.4 - http://assemblyapp.co -->	<svg version="1.1" xmlns="http://www.w3.org/2000/svg" xmlns:xlink="http://www.w3.org/1999/xlink" width="4096.00" height="4096.00" viewBox="0 0 4096.0 4096.0">		<g id="document" transform="scale(1.0 1.0) translate(2048.0 2048.0)">			<g>				<g>					<path d="M1154.46,-1152.17 C516.714,-1789.91 -516.715,-1789.91 -1154.46,-1152.17 C-1792.21,-514.418 -1794.54,521.338 -1156.79,1159.08 C-519.042,1796.83 519.042,1796.83 1156.79,1159.08 " fill="none" stroke-width="201.60" stroke="#3c3737" stroke-linecap="square" stroke-linejoin="miter" />					<path d="M1320.77,-1316.05 C594.495,-2048.48 -587.38,-2053.48 -1319.82,-1327.2 C-2052.25,-600.928 -2059.92,583.598 -1333.65,1316.03 C-607.373,2048.47 579.827,2053.49 1312.26,1327.21 " fill="none" stroke-width="201.60" stroke="#3c3737" stroke-linecap="square" stroke-linejoin="miter" />				</g>				<g>					<path d="M-1102.44,475.869 C-1102.44,723.783 -921.086,702.32 -673.172,702.32 L675.574,702.32 C923.488,702.32 1104.84,723.783 1104.84,475.868 C-953.072,475.869 -799.523,475.869 -1102.44,475.869 Z " fill="#3c3737" fill-opacity="1.00" />					<path d="M1.20087,337.448 L1.2008,-766.193 C-607.589,-766.193 -1102.44,-271.342 -1102.44,337.448 L1.20087,337.448 Z " fill="#3c3737" fill-opacity="1.00" />					<path d="M1.20087,337.448 L1.2008,-766.193 C609.991,-766.193 1104.84,-271.342 1104.84,337.448 L1.20087,337.448 Z " fill="#3c3737" fill-opacity="1.00" />					<path d="M100.149,337.448 L100.149,-655.463 L-97.7471,-655.463 L-97.747,337.448 L100.149,337.448 Z " fill="#3c3737" fill-opacity="1.00" />					<path d="M-6.39023,-683.102 L10.228,-683.102 L10.228,-766.193 L-6.39023,-766.193 L-6.39023,-683.102 Z " fill="#3c3737" fill-opacity="1.00" />					<path d="M-6.39022,-619.662 L10.228,-619.662 L10.228,-702.753 L-6.39023,-702.753 L-6.39022,-619.662 Z " fill="#3c3737" fill-opacity="1.00" />				</g>			</g>		</g>	</svg>